<svg id="Layer_1" data-name="Layer 1" xmlns="http://www.w3.org/2000/svg" viewBox="0 0 567.39 84.37"><defs><style>.cls-1{fill:#fff;}</style></defs><title>181105_Soil-Centric_Wordmark_Vector_White_01_KL</title><path class="cls-1" d="M101,117.91c0-3.65-.91-6.5-3.19-8.44-2-1.82-4.79-2.85-8.84-3.42l-9.63-1.36c-6.56-1-11.52-3-15.34-6.56-4.05-3.71-6-8.95-6-15.56,0-14.14,10.26-23.72,27.13-23.72,7.7,0,12.37,1.26,19.1,4.79,2.85,1.48,5,3.59,5,6.21a5.76,5.76,0,0,1-1.43,3.77,4.68,4.68,0,0,1-3.76,1.76,11,11,0,0,1-5-1.76,24.53,24.53,0,0,0-14.36-4C75.16,69.63,70,74.81,70,82.22c0,3,.8,5.71,3,7.53s4.45,3,8.9,3.65l9.69,1.48c7.41,1.14,11.51,2.85,15,6,4.33,4,6.61,9.58,6.61,16.65,0,14.93-12.09,23.83-29.19,23.83-9.75,0-15.85-1.88-21.83-5.47-4.22-2.51-5.76-4.22-5.76-7.19a6,6,0,0,1,1.71-4,5,5,0,0,1,3.59-1.49c1.6,0,3,.52,5.25,2.05,5.47,3.77,10.26,5.19,17.27,5.19C95,130.45,101,125.89,101,117.91Z" transform="translate(-56.46 -57.03)"/><path class="cls-1" d="M131.47,89.07c3.77-3.88,9.41-6.85,17.27-6.85s13.52,3,17.28,6.85c5.59,5.81,6.78,13,6.78,22.74s-1.19,16.93-6.78,22.75c-3.76,3.87-9.41,6.84-17.28,6.84s-13.5-3-17.27-6.84c-5.64-5.82-6.78-13-6.78-22.75S125.83,94.88,131.47,89.07Zm8.84,38.53a12.4,12.4,0,0,0,16.87,0c3.48-3.48,4-9.46,4-15.79s-.51-12.26-4-15.79a12.4,12.4,0,0,0-16.87,0c-3.48,3.53-4,9.46-4,15.79S136.83,124.12,140.31,127.6Z" transform="translate(-56.46 -57.03)"/><path class="cls-1" d="M192,57a7,7,0,1,1-7,7A7,7,0,0,1,192,57Zm5,81.4a5.86,5.86,0,0,1-9.92,0c-.68-1.36-.85-2.39-.85-5.18V90.38c0-2.8.17-3.82.85-5.19a5.86,5.86,0,0,1,9.92,0c.69,1.37.86,2.39.86,5.19v42.87C197.8,136,197.63,137.07,196.94,138.43Z" transform="translate(-56.46 -57.03)"/><path class="cls-1" d="M213.19,66.89c0-2.79.17-3.82.85-5.19a5.87,5.87,0,0,1,9.92,0c.68,1.37.85,2.4.85,5.19v57.29c0,4,1.6,6.56,5.88,6.67a9.3,9.3,0,0,1,4.22.8,4.51,4.51,0,0,1,2.33,4.1,4.42,4.42,0,0,1-2.33,4.05,10.23,10.23,0,0,1-4.91.91h-1.14c-10.89,0-15.67-7.52-15.67-16Z" transform="translate(-56.46 -57.03)"/><path class="cls-1" d="M283.52,67.12c5.25-5.25,12.09-8.27,20.92-8.27,10.21,0,16.31,3.08,21.27,8.38,4.56,4.9,6.21,10.15,6.21,13.06A5.78,5.78,0,0,1,326,86.61a5.85,5.85,0,0,1-3.65-1.19,11.05,11.05,0,0,1-3-4.62c-3-7-7.47-11-15.11-11a15.48,15.48,0,0,0-11.68,5.07c-4.28,4.62-4.85,9.81-4.85,25.25s.57,20.64,4.85,25.26a15.48,15.48,0,0,0,11.68,5.07c7.64,0,12.15-4,15.11-11a11.05,11.05,0,0,1,3-4.62,6.2,6.2,0,0,1,7.93.52,5.94,5.94,0,0,1,1.65,4.61c0,2.91-1.65,8.15-6.21,13.06-5,5.3-11.06,8.38-21.27,8.38-8.83,0-15.67-3-20.92-8.27-7.86-7.87-8.15-16-8.15-33S275.66,75,283.52,67.12Z" transform="translate(-56.46 -57.03)"/><path class="cls-1" d="M368.25,82.22c15.1,0,24.11,11,24.45,26.28a6.83,6.83,0,0,1-1.59,5.19c-1.49,1.48-3.42,1.48-5.13,1.48H355.25c0,9.87,5.19,16.31,14.82,16.31a17.61,17.61,0,0,0,11.12-3.65,7.62,7.62,0,0,1,4.73-2.11,5.13,5.13,0,0,1,4.79,5c0,2.68-3,5.19-5.82,7-3.65,2.4-8.89,3.71-15.1,3.71-14.43,0-26.06-7.58-26.06-29.59C343.73,92.77,353.48,82.22,368.25,82.22Zm11.4,17a12.65,12.65,0,0,0-22.92,0c-1.14,2.51-1.37,4.33-1.48,7.87h26C381,103.54,380.79,101.72,379.65,99.21Z" transform="translate(-56.46 -57.03)"/><path class="cls-1" d="M417.07,133.25c0,2.79-.17,3.82-.85,5.18a5.86,5.86,0,0,1-9.92,0c-.69-1.36-.86-2.39-.86-5.18V90.43c0-3.19.23-4.22,1-5.53a6,6,0,0,1,9.52-.17,6.66,6.66,0,0,1,1,3.82,20.67,20.67,0,0,1,15.23-6.33c5.92,0,10.83,1.94,14.25,5.25,4.44,4.33,5.81,9.8,5.81,16.3v29.48c0,2.79-.17,3.82-.85,5.18a5.86,5.86,0,0,1-9.92,0c-.69-1.36-.86-2.39-.86-5.18V105.48c0-9-5.13-12.77-11.63-12.77s-12,3.88-12,12.77Z" transform="translate(-56.46 -57.03)"/><path class="cls-1" d="M470,91.8h-2.68c-2.16,0-3-.11-4.05-.68a4.48,4.48,0,0,1,0-7.53c1-.57,1.89-.68,4.05-.68H470V73.84c0-2.79.17-3.81.86-5.18a5.85,5.85,0,0,1,9.91,0c.69,1.37.86,2.39.86,5.18v9.07h6.27c2.17,0,3,.11,4,.68a4.48,4.48,0,0,1,0,7.53c-1,.57-1.88.68-4,.68h-6.27v32.38c0,4,1.6,6.56,5.87,6.67a9.3,9.3,0,0,1,4.22.8,4.5,4.5,0,0,1,2.34,4.1,4.41,4.41,0,0,1-2.34,4.05,10.21,10.21,0,0,1-4.9.91h-1.14c-10.89,0-15.68-7.52-15.68-16Z" transform="translate(-56.46 -57.03)"/><path class="cls-1" d="M531.79,82.22c4.27,0,7.35.8,10.15,2.68,2,1.31,3.47,3,3.47,5.25a6,6,0,0,1-1.71,4.22,5.84,5.84,0,0,1-4,1.59,9.07,9.07,0,0,1-4.5-1.54,12.66,12.66,0,0,0-6.27-1.71c-6.62,0-11.8,4.91-11.8,12.94v27.6c0,2.79-.17,3.82-.86,5.18a5.86,5.86,0,0,1-9.92,0c-.68-1.36-.85-2.39-.85-5.18V90.43c0-3.19.23-4.22,1-5.53a6,6,0,0,1,9.52-.17c.63.92.92,1.77,1,4.22A18.89,18.89,0,0,1,531.79,82.22Z" transform="translate(-56.46 -57.03)"/><path class="cls-1" d="M561.23,57a7,7,0,1,1-7,7A7,7,0,0,1,561.23,57Zm5,81.4a5.86,5.86,0,0,1-9.92,0c-.68-1.36-.85-2.39-.85-5.18V90.38c0-2.8.17-3.82.85-5.19a5.86,5.86,0,0,1,9.92,0c.68,1.37.86,2.39.86,5.19v42.87C567.05,136,566.87,137.07,566.19,138.43Z" transform="translate(-56.46 -57.03)"/><path class="cls-1" d="M605.56,82.22a21.34,21.34,0,0,1,12.65,3.65c3,1.94,5.64,4,5.64,7a5.56,5.56,0,0,1-1.65,3.82,5.29,5.29,0,0,1-3.59,1.48c-1.54,0-2.68-.63-4.62-2.22a12.25,12.25,0,0,0-8.43-3.2,12.44,12.44,0,0,0-10.55,5c-2.51,3.31-3.48,7.41-3.48,14.14s1,10.83,3.48,14.08,6,5,10.55,5c3.19,0,5.52-1,8.43-3.25,1.94-1.54,3.08-2.22,4.62-2.22A5.29,5.29,0,0,1,622.2,127a5.41,5.41,0,0,1,1.65,3.81c0,2.91-2.73,5.08-5.64,7a21.8,21.8,0,0,1-12.65,3.65c-13.12,0-25.66-7.93-25.66-29.59S592.44,82.22,605.56,82.22Z" transform="translate(-56.46 -57.03)"/></svg>